<svg width="212px" height="19px" viewBox="0 0 212 19" version="1.1" xmlns="http://www.w3.org/2000/svg" xmlns:xlink="http://www.w3.org/1999/xlink">
  <path d="M154.785,17 L154.785,2.321 C164.487,0.851 166.776,6.206 166.776,9.65 C166.776,12.968 164.34,18.323 154.785,17 Z M157.011,4.19 L157.011,15.089 C160.728,15.488 164.403,13.724 164.403,9.629 C164.403,6.206 161.82,3.602 157.011,4.19 Z M168.54,9.65 C168.54,5.366 171.795,1.964 176.268,1.964 C180.741,1.964 184.017,5.366 184.017,9.65 C184.017,13.913 180.741,17.294 176.268,17.294 C171.795,17.294 168.54,13.913 168.54,9.65 Z M170.913,9.65 C170.913,13.052 173.37,15.32 176.268,15.32 C179.145,15.32 181.644,13.052 181.644,9.65 C181.644,6.248 179.145,3.917 176.268,3.917 C173.37,3.917 170.913,6.248 170.913,9.65 Z M197.94,13.577 L199.284,15.026 C198.276,16.013 196.638,17.294 193.467,17.294 C189.12,17.294 185.802,13.955 185.802,9.608 C185.802,4.988 189.477,1.964 193.572,1.964 C196.491,1.964 198.192,3.245 199.179,4.127 L197.856,5.702 C197.016,4.925 195.525,3.917 193.614,3.917 C190.569,3.917 188.196,6.416 188.196,9.608 C188.196,12.695 190.401,15.32 193.635,15.32 C195.378,15.32 197.058,14.438 197.94,13.577 Z M210.498,3.098 L209.784,4.946 C208.902,4.463 207.537,3.938 206.424,3.938 C204.744,3.938 203.673,4.799 203.673,5.954 C203.673,7.235 205.017,7.949 206.76,8.6 C209.952,9.839 211.107,11.33 211.065,13.262 C211.002,15.845 208.692,17.315 205.962,17.294 C203.82,17.273 202.14,16.475 201.216,15.719 L202.098,14.018 C202.917,14.627 204.303,15.362 205.836,15.362 C207.453,15.362 208.86,14.543 208.86,13.304 C208.86,11.855 207.327,11.246 205.311,10.364 C202.917,9.314 201.447,8.117 201.447,5.954 C201.447,4.022 203.022,1.964 206.235,1.964 C207.789,1.964 209.637,2.636 210.498,3.098 Z" fill="#576ADA"></path>
  <path d="M3.375,18 L0,18 L0,0.45 L10.75,0.45 L10.75,3.3 L3.375,3.3 L3.375,7.675 L9.2,7.675 L9.2,10.525 L3.375,10.525 L3.375,18 Z M13.375,9.225 C13.375,4.2 17.225,0.1 22.675,0.1 C28.1,0.1 32,4.2 32,9.225 C32,14.25 28.1,18.35 22.675,18.35 C17.225,18.35 13.375,14.25 13.375,9.225 Z M17,9.225 C17,12.95 19.675,15.275 22.675,15.275 C25.65,15.275 28.375,12.95 28.375,9.225 C28.375,5.5 25.65,3.125 22.675,3.125 C19.675,3.125 17,5.5 17,9.225 Z M48.15,6.05 C48.15,8.35 46.7,10.175 45.05,11 L49.55,18 L45.45,18 L41.75,11.95 C41,12.025 40.25,12.05 39.4,11.975 L39.4,18 L36.025,18 L36.025,0.6 C44.325,-0.825 48.15,1.725 48.15,6.05 Z M39.4,3.4 L39.4,9.05 C43.075,9.425 44.675,8.05 44.675,6 C44.675,4.125 42.975,2.85 39.4,3.4 Z M56.35,15.15 L64.175,15.15 L64.175,18 L52.975,18 L52.975,0.45 L63.925,0.45 L63.925,3.3 L56.35,3.3 L56.35,7.675 L62.6,7.675 L62.6,10.525 L56.35,10.525 L56.35,15.15 Z M79.35,1.525 L78.275,4.35 C77.225,3.775 75.575,3.15 74.325,3.15 C72.65,3.15 71.425,3.9 71.425,5.075 C71.425,6.3 72.85,7.025 74.775,7.75 C78.85,9.35 80.025,11.225 79.95,13.4 C79.875,16.55 77.05,18.375 73.6,18.35 C71.05,18.325 68.85,17.25 67.725,16.35 L69,13.75 C69.975,14.475 71.675,15.35 73.375,15.35 C74.925,15.35 76.575,14.75 76.575,13.45 C76.575,12 74.575,11.35 72.475,10.425 C69.75,9.175 68.025,7.65 68.025,5.075 C68.025,2.575 70.15,0.1 74.025,0.1 C76.075,0.1 78.425,1.05 79.35,1.525 Z M84.475,18 L84.475,0.45 L87.85,0.45 L87.85,18 L84.475,18 Z M102.825,11.45 L102.825,8.625 L109.1,8.625 L109.1,15.325 C106.825,17.675 104.4,18.35 101.625,18.35 C96.075,18.35 92.125,14.3 92.125,9.175 C92.125,3.8 96.525,0.1 101.375,0.1 C104.925,0.1 106.925,1.525 108.225,2.75 L106.125,5.175 C105.3,4.35 103.875,3.125 101.5,3.125 C98.275,3.125 95.775,5.775 95.775,9.1 C95.775,12.825 98.225,15.325 101.825,15.325 C103.25,15.325 105.05,14.775 105.825,14.025 L105.825,11.45 L102.825,11.45 Z M123.925,18 L123.925,10.525 L116.75,10.525 L116.75,18 L113.375,18 L113.375,0.45 L116.75,0.45 L116.75,7.675 L123.925,7.675 L123.925,0.45 L127.3,0.45 L127.3,18 L123.925,18 Z M144.175,0.45 L144.175,3.3 L139.25,3.3 L139.25,18 L135.875,18 L135.875,3.3 L130.975,3.3 L130.975,0.45 L144.175,0.45 Z" fill="#000000"></path>
</svg>